{"title":"Angeles y Querubines (1972) Dvdrip.Xvid-Clan-Sud","uid":8759192,"size":827412858,"categoryP":"video","categoryS":"movies","magnet":"?xt=urn:btih:e5db4dd1adea505aebe143c6542091eabbc7e3fd&amp;dn=Angeles+y+Querubines+%281972%29+Dvdrip.Xvid-Clan-Sud&amp;tr=udp%3A%2F%2Ftracker.openbittorrent.com%3A80&amp;tr=udp%3A%2F%2Fopen.demonii.com%3A1337&amp;tr=udp%3A%2F%2Ftracker.coppersurfer.tk%3A6969&amp;tr=udp%3A%2F%2Fexodus.desync.com%3A6969","seeders":1,"leechers":0,"uploader":null,"files":1,"time":1375213132,"description":"Angeles y Querubines(1972)(Clan-Sudamerica)\n\nFormat: AVI\nFormat/Info  : Audio Video Interleave\nFile size : 789 MiB\nDuration : 1h 24mn\nOverall bit rate : 1 304 Kbps\nWriting application : VirtualDubMod 1.5.4.1 (build 2178/release)\nWriting library : VirtualDub build 32706/release\n\nVideo\nID  : 0\nFormat : MPEG-4 Visual\nFormat profile : Advanced Simple@L5\nFormat settings, BVOP : 1\nFormat settings, QPel : No\nFormat settings, GMC : No warppoints\nFormat settings, Matrix : Custom\nCodec ID : XVID\nCodec ID/Hint : XviD\nDuration  : 1h 24mn\nBit rate : 1 036 Kbps\nWidth : 512 pixels\nHeight  : 384 pixels\nDisplay aspect ratio : 4:3\nFrame rate : 29.970 fps\nColor space : YUV\nChroma subsampling : 4:2:0\nBit depth: 8 bits\nScan type  : Progressive\nCompression mode : Lossy\nBits/(Pixel*Frame): 0.176\nStream size  : 627 MiB (79%)\nWriting library : XviD 1.2.1 (UTC 2008-12-04)\n\nAudio\nID   : 1\nFormat  : AC-3\nFormat/Info   : Audio Coding 3\nMode extension : CM (complete main)\nFormat settings, Endianness  : Big\nCodec ID  : 2000\nDuration : 1h 24mn\nBit rate mode  : Constant\nBit rate  : 256 Kbps\nChannel(s): 2 channels\nChannel positions : Front: L R\nSampling rate   : 48.0 KHz\nBit depth  : 16 bits\nCompression mode  : Lossy\nDelay relative to video : 64ms\nStream size  : 155 MiB (20%)\nAlignment  : Split accross interleaves\nInterleave, duration  : 33 ms (1.00 video frame)\nInterleave, preload duration  : 500 ms\n","torrent":{"xt":"urn:btih:e5db4dd1adea505aebe143c6542091eabbc7e3fd","amp;dn":"Angeles+y+Querubines+%281972%29+Dvdrip.Xvid-Clan-Sud","amp;tr":["udp%3A%2F%2Ftracker.openbittorrent.com%3A80","udp%3A%2F%2Fopen.demonii.com%3A1337","udp%3A%2F%2Ftracker.coppersurfer.tk%3A6969","udp%3A%2F%2Fexodus.desync.com%3A6969"],"infoHash":"e5db4dd1adea505aebe143c6542091eabbc7e3fd","infoHashBuffer":{"type":"Buffer","data":[229,219,77,209,173,234,80,90,235,225,67,198,84,32,145,234,187,199,227,253]},"announce":[],"urlList":[]}}